<svg width="24" height="24" viewBox="0 0 24 24" fill="none" xmlns="http://www.w3.org/2000/svg">
                     <path d="M15.096 5.90401C14.4945 5.29132 13.7775 4.80388 12.9866 4.46984C12.1956 4.1358 11.3463 3.96179 10.4877 3.95784C9.62905 3.9539 8.77817 4.1201 7.98415 4.44686C7.19014 4.77361 6.46873 5.25444 5.8616 5.86158C5.25446 6.46871 4.77363 7.19012 4.44688 7.98413C4.12012 8.77815 3.95391 9.62903 3.95786 10.4876C3.96181 11.3462 4.13582 12.1956 4.46986 12.9865C4.8039 13.7775 5.29134 14.4945 5.90403 15.096C7.12678 16.2965 8.77412 16.9656 10.4877 16.9577C12.2012 16.9498 13.8423 16.2656 15.054 15.054C16.2657 13.8423 16.9498 12.2012 16.9577 10.4876C16.9656 8.7741 16.2965 7.12676 15.096 5.90401ZM4.49003 4.49001C6.02285 2.95757 8.08318 2.06858 10.2497 2.00484C12.4162 1.9411 14.5253 2.70741 16.1455 4.14708C17.7658 5.58675 18.7749 7.591 18.9664 9.74998C19.158 11.909 18.5175 14.0596 17.176 15.762L22.521 21.107L21.107 22.521L15.762 17.176C14.059 18.5126 11.9103 19.149 9.75409 18.9556C7.5979 18.7622 5.59673 17.7534 4.15881 16.1351C2.72088 14.5168 1.95452 12.4109 2.01607 10.2469C2.07762 8.08294 2.96244 6.02397 4.49003 4.49001Z" fill="white" />
                  </svg>
